<?xml version="1.0" encoding="iso-8859-1"?>
<!-- Generator: Adobe Illustrator 18.0.0, SVG Export Plug-In . SVG Version: 6.00 Build 0)  -->
<!DOCTYPE svg PUBLIC "-//W3C//DTD SVG 1.1//EN" "http://www.w3.org/Graphics/SVG/1.1/DTD/svg11.dtd">
<svg version="1.1" id="Capa_1" xmlns="http://www.w3.org/2000/svg" xmlns:xlink="http://www.w3.org/1999/xlink" x="0px" y="0px"
	 viewBox="0 0 380 380" style="enable-background:new 0 0 380 380;" xml:space="preserve" fill="#838a0d">
<g>
	<path d="M190,0C85.233,0,0,85.234,0,190c0,104.767,85.233,190,190,190s190-85.233,190-190C380,85.234,294.767,0,190,0z
		 M190,324.391c-74.103,0-134.392-60.288-134.392-134.391S115.897,55.609,190,55.609c74.103,0,134.391,60.288,134.391,134.391
		S264.103,324.391,190,324.391z"/>
	<path d="M208.629,173.619v-40.643c5.992,1.311,11.523,3.362,15.678,5.855c2.451,1.469,5.249,2.245,8.096,2.245
		c5.475,0,10.474-2.77,13.371-7.407l0.698-1.117c2.219-3.553,2.935-7.927,1.962-12c-0.969-4.075-3.582-7.655-7.166-9.825
		c-8.974-5.432-20.679-9.465-32.639-11.294V91.33c0-8.688-7.068-15.757-15.755-15.757h-1.558c-8.688,0-15.757,7.068-15.757,15.757
		v8.911c-26.992,5.444-43.579,22.83-43.579,46.069c0,34.729,29.096,46.797,43.579,51.706v45.582
		c-9.101-2.451-17.544-7.046-23.295-12.792c-2.976-2.972-6.929-4.607-11.136-4.607c-4.207,0-8.161,1.637-11.138,4.611l-1.052,1.051
		c-2.967,2.964-4.649,7.069-4.619,11.268c0.033,4.196,1.78,8.276,4.794,11.197c12.114,11.734,28.857,20.006,46.445,23.041v11.303
		c0,8.69,7.069,15.756,15.757,15.756h1.558c8.687,0,15.755-7.066,15.755-15.756v-11.633c29.135-5.546,47.049-24.259,47.049-49.52
		C255.952,190.768,225.911,179.138,208.629,173.619z M175.56,162.04c-8.722-4.659-10.513-9.232-10.513-15.729
		c0-5.276,3.531-9.233,10.513-11.808V162.04z M222.608,227.413c0,7.253-4.696,12.453-13.979,15.502V208.93
		c10.643,4.668,14.057,9.507,13.979,18.387V227.413z"/>
</g>
<g>
</g>
<g>
</g>
<g>
</g>
<g>
</g>
<g>
</g>
<g>
</g>
<g>
</g>
<g>
</g>
<g>
</g>
<g>
</g>
<g>
</g>
<g>
</g>
<g>
</g>
<g>
</g>
<g>
</g>
</svg>
